<svg width="800" height="800" viewBox="0 0 48 48" version="1" xmlns="http://www.w3.org/2000/svg"><defs><filter id="a"><feGaussianBlur in="SourceGraphic" stdDeviation="2"/></filter><circle id="b" cx="12" cy="12" r="15" fill="#b22c05" filter="url(#a)"/><circle id="c" cx="36" cy="12" r="15" fill="#cf7b4c" filter="url(#a)"/><circle id="d" cx="12" cy="36" r="15" fill="#5c8fea" filter="url(#a)"/><circle id="e" cx="36" cy="36" r="15" fill="#2c864e" filter="url(#a)"/><pattern id="pattern" x="0" y="0" width="48" height="48" patternUnits="userSpaceOnUse"><use href="#b"/><use href="#c"/><use href="#d"/><use href="#e"/></pattern><radialGradient id="holographic" cx="50%" cy="50%" r="50%" fx="50%" fy="50%"><stop offset="0%" style="stop-color:#00f; stop-opacity:1" /><stop offset="25%" style="stop-color:#0f0; stop-opacity:1" /><stop offset="50%" style="stop-color:#ff0; stop-opacity:1" /><stop offset="75%" style="stop-color:#f00; stop-opacity:1" /><stop offset="100%" style="stop-color:#00f; stop-opacity:1" /></radialGradient></defs><circle fill="url(#pattern)" cx="24" cy="24" r="20"/><circle fill="#eee" cx="24" cy="24" r="16"/><text x="24" y="35" font-family="Impact" font-size="1" text-anchor="middle">Clock City</text><text x="24" y="15" font-family="Impact" font-size="1" text-anchor="middle">UTC +7</text><circle fill="url(#holographic)" cx="24" cy="10" r="0.5"/><circle fill="url(#holographic)" cx="31.2" cy="11.72" r="0.5"/><circle fill="url(#holographic)" cx="36.58" cy="17" r="0.5"/><circle fill="url(#holographic)" cx="38.58" cy="24" r="0.5"/><circle fill="url(#holographic)" cx="36.5" cy="31.3" r="0.5"/><circle fill="url(#holographic)" cx="31.3" cy="36.5" r="0.5"/><circle fill="url(#holographic)" cx="24" cy="38" r="0.5"/><circle fill="url(#holographic)" cx="16.8" cy="36.5" r="0.5"/><circle fill="url(#holographic)" cx="11.5" cy="31." r="0.5"/><circle fill="url(#holographic)" cx="9.42" cy="24" r="0.5"/><circle fill="url(#holographic)" cx="11.5" cy="16.9" r="0.5"/><circle fill="url(#holographic)" cx="16.8" cy="11.5" r="0.5"/><path d="M23 11h2v13h-2z"><animateTransform attributeName="transform" type="rotate" from="132 24 24" to="492 24 24" dur="60min" repeatCount="indefinite"/></path><path d="M22.846 14.85h2.3v9.2h-2.3z"><animateTransform attributeName="transform" type="rotate" from="161 24 24" to="521 24 24" dur="12h" repeatCount="indefinite"/></path><path fill="red" d="M23.75 11h.5v13h-.5z"><animateTransform attributeType="xml" attributeName="transform" type="rotate" from="162 24 24" to="522 24 24" dur="60s" repeatCount="indefinite" /></path><circle cx="24" cy="24" r="2"/><circle fill="url(#holographic)" cx="24" cy="24" r="1"/></svg>